<svg width="96" height="14" viewBox="0 0 96 14" fill="none" xmlns="http://www.w3.org/2000/svg">
<path fill-rule="evenodd" clip-rule="evenodd" d="M28.7451 13.9508C28.7232 13.9235 31.8072 2.27958 32.3759 0.229598L32.4416 0H34.5523L34.6343 0.284264C34.7218 0.579461 38.1832 13.5736 38.2488 13.8415L38.2871 13.9945H37.5488C36.8927 13.9945 36.8106 13.9836 36.7888 13.9016C36.7827 13.8814 36.6769 13.4848 36.5002 12.8227L36.4988 12.8172C36.1982 11.6906 35.6937 9.79961 35.1264 7.68606C34.2297 4.32409 33.4915 1.59078 33.4805 1.61812C33.475 1.64545 32.7423 4.39516 31.851 7.73526L31.2205 10.0986C30.6359 12.2903 30.2174 13.8592 30.2051 13.8961C30.1777 13.9836 30.0957 13.9945 29.4723 13.9945C29.0841 13.9945 28.756 13.9781 28.7451 13.9508ZM0.102707 2.88678C0.496417 1.35066 1.79238 0.224542 3.36175 0.0550766C3.88669 0.000410505 9.46972 -0.0105227 9.55721 0.0441434C9.60642 0.0824097 9.62282 0.262808 9.61189 0.771203L9.59548 1.44906L6.45128 1.4764L6.44036 1.47649C3.32343 1.50373 3.3067 1.50388 2.99538 1.62946C1.98376 2.03946 1.3768 2.94145 1.43148 3.95824C1.45335 4.4885 1.7377 5.07343 2.18062 5.51622C2.86961 6.19955 3.22504 6.28702 5.41232 6.28702C7.23869 6.28702 7.38634 6.30888 8.14095 6.67515C8.98305 7.09061 9.70485 7.94887 10.0384 8.93832C10.2298 9.49592 10.2735 10.3323 10.1532 10.9172C9.85249 12.3331 8.97758 13.3553 7.68162 13.8145L7.24416 13.9676L3.80467 13.984C1.02683 13.9949 0.354244 13.984 0.321434 13.9293C0.266753 13.8473 0.255816 12.7868 0.30503 12.6611C0.337839 12.5846 0.66593 12.5736 3.50392 12.5736C5.62011 12.5736 6.76296 12.5518 6.95435 12.5135C7.82379 12.3276 8.47451 11.6716 8.72057 10.7314C9.01039 9.62712 8.42529 8.4026 7.38087 7.90514L7.02543 7.73567L5.11157 7.70287C2.98444 7.6646 2.91882 7.65367 2.15875 7.27647C1.14713 6.77355 0.359712 5.80595 0.0863023 4.72357C-0.0339979 4.24797 -0.0285297 3.40064 0.102707 2.88678ZM43.9192 6.98087L43.9356 13.9672H45.3026L45.33 7.72433L45.3573 1.47599L48.9991 7.72433L52.6355 13.9672L53.494 13.9836L54.3525 14L54.3416 7.01367L54.3252 0.0273331H52.9034L52.8761 5.71808L52.8487 11.4088L49.5077 5.71808L46.1721 0.0273331L45.0402 0.0109332L43.9083 0L43.9192 6.98087ZM77.8439 13.9071C77.8001 13.7977 77.8001 0.196798 77.8439 0.0874658C77.8712 0.0163998 77.9861 0 78.5548 0H79.2328V13.9945H78.5548C77.9861 13.9945 77.8712 13.9781 77.8439 13.9071ZM84.4276 0.683327V1.36665H89.1302L89.1412 7.66419L89.1576 13.9672L89.7809 13.9836C90.1911 13.9945 90.4262 13.9781 90.4754 13.9344C90.541 13.8797 90.552 12.8957 90.552 7.62046V1.36665H95.1999V0H84.4276V0.683327ZM14.9651 2.8423C15.7143 1.47018 17.0212 0.426052 18.3445 0.136321C18.596 0.0816548 19.3397 0.065255 21.5433 0.0707216L24.4141 0.0816548V1.44831L21.516 1.47564L21.487 1.47592C18.6558 1.50298 18.6114 1.5034 18.3116 1.62871C16.8462 2.2191 15.8127 3.76069 15.4955 5.8216C15.3862 6.51039 15.419 8.06291 15.5502 8.74624C15.8783 10.419 16.6767 11.6654 17.7703 12.2175C18.4593 12.5674 18.5304 12.5729 21.6691 12.5729H24.5016L24.4852 13.2671L24.4688 13.9669H21.434H21.4339C18.4265 13.9669 18.3937 13.9669 17.9617 13.8411C16.0041 13.2781 14.7026 11.6818 14.1832 9.22184C14.0082 8.37998 13.9426 6.72359 14.0519 5.8052C14.1722 4.75014 14.5003 3.68415 14.9651 2.8423ZM61.0894 7.00822L61.1058 13.9672L64.0859 13.9836C67.1864 14 67.7387 13.9727 68.4441 13.7704C71.0633 13.0215 72.5671 10.2937 72.4359 6.51076C72.3921 5.2917 72.1953 4.42798 71.7195 3.43305C71.0743 2.0664 69.8385 0.852813 68.619 0.382684C67.7879 0.0656207 67.6676 0.0546875 64.2172 0.0546875H61.0784L61.0894 7.00822ZM70.7463 4.91916C70.1667 3.09878 68.8379 1.77039 67.367 1.53533C67.1592 1.50253 66.071 1.4752 64.7587 1.4752H62.5003V12.5779L65.0321 12.5615L65.0358 12.5615C67.8263 12.5342 67.843 12.534 68.5973 12.1624C69.3465 11.7962 69.8988 11.2003 70.3253 10.3038C70.7682 9.37445 70.965 8.47246 71.0143 7.18234C71.0525 6.21475 70.9869 5.67355 70.7463 4.91916Z" fill="#16191C"/>
</svg>
