<svg width="36" height="36" viewBox="0 0 36 36" fill="none" xmlns="http://www.w3.org/2000/svg">
<path d="M0 18C0 8.05888 8.05888 0 18 0C27.9411 0 36 8.05888 36 18C36 27.9411 27.9411 36 18 36C8.05888 36 0 27.9411 0 18Z" fill="white"/>
<mask id="mask0_5624_1064" style="mask-type:alpha" maskUnits="userSpaceOnUse" x="6" y="6" width="24" height="24">
<rect x="6" y="6" width="24" height="24" fill="#D9D9D9"/>
</mask>
<g mask="url(#mask0_5624_1064)">
<path d="M12 21H20V19H12V21ZM12 18H24V16H12V18ZM12 15H24V13H12V15ZM10 25C9.45 25 8.97917 24.8042 8.5875 24.4125C8.19583 24.0208 8 23.55 8 23V11C8 10.45 8.19583 9.97917 8.5875 9.5875C8.97917 9.19583 9.45 9 10 9H26C26.55 9 27.0208 9.19583 27.4125 9.5875C27.8042 9.97917 28 10.45 28 11V23C28 23.55 27.8042 24.0208 27.4125 24.4125C27.0208 24.8042 26.55 25 26 25H20.675L18.825 27.75C18.725 27.9 18.6042 28.0125 18.4625 28.0875C18.3208 28.1625 18.1667 28.2 18 28.2C17.8333 28.2 17.6792 28.1625 17.5375 28.0875C17.3958 28.0125 17.275 27.9 17.175 27.75L15.325 25H10ZM18 25.4L19.6 23H26V11H10V23H16.4L18 25.4Z" fill="#16191C"/>
</g>
</svg>
