<svg width="36" height="36" viewBox="0 0 36 36" fill="none" xmlns="http://www.w3.org/2000/svg">
<path d="M0 18C0 8.05888 8.05888 0 18 0C27.9411 0 36 8.05888 36 18C36 27.9411 27.9411 36 18 36C8.05888 36 0 27.9411 0 18Z" fill="white"/>
<path d="M12 9C10.3431 9 9 10.3431 9 12V15H11V12C11 11.4477 11.4477 11 12 11H15V9H12Z" fill="#16191C"/>
<path d="M21 9V11H24C24.5523 11 25 11.4477 25 12V15H27V12C27 10.3431 25.6569 9 24 9H21Z" fill="#16191C"/>
<path d="M15 25H12C11.4477 25 11 24.5523 11 24V21H9V24C9 25.6569 10.3431 27 12 27H15V25Z" fill="#16191C"/>
<path d="M21 27H24C25.6569 27 27 25.6569 27 24V21H25V24C25 24.5523 24.5523 25 24 25H21V27Z" fill="#16191C"/>
<path d="M13 14C13 13.4477 13.4477 13 14 13H22C22.5523 13 23 13.4477 23 14V22C23 22.5523 22.5523 23 22 23H14C13.4477 23 13 22.5523 13 22V14Z" fill="#16191C"/>
</svg>
