<svg width="49" height="48" viewBox="0 0 49 48" fill="none" xmlns="http://www.w3.org/2000/svg">
<path d="M0.75 24C0.75 10.7452 11.4952 0 24.75 0C38.0048 0 48.75 10.7452 48.75 24C48.75 37.2548 38.0048 48 24.75 48C11.4952 48 0.75 37.2548 0.75 24Z" fill="#525A61"/>
<path d="M25.8929 27.4686L22.4644 24L25.8929 20.5714" stroke="white" stroke-width="2" stroke-linecap="round" stroke-linejoin="round"/>
<path d="M33.8928 24H22.4643" stroke="white" stroke-width="2" stroke-linecap="round" stroke-linejoin="round"/>
<path d="M31.6071 21.7142V18.3322C31.6071 17.0735 30.5894 16.0516 29.3307 16.0465L20.1878 16.0092C18.9255 16.0041 17.898 17.0233 17.8928 18.2857V18.295V29.7142C17.8928 30.9766 18.9162 31.9999 20.1785 31.9999H29.3214C30.5838 31.9999 31.6071 30.9766 31.6071 29.7142V26.2856" stroke="white" stroke-width="2" stroke-linecap="round" stroke-linejoin="round"/>
</svg>
