<svg width="36" height="36" viewBox="0 0 36 36" fill="none" xmlns="http://www.w3.org/2000/svg">
<path d="M0 18C0 8.05888 8.05888 0 18 0C27.9411 0 36 8.05888 36 18C36 27.9411 27.9411 36 18 36C8.05888 36 0 27.9411 0 18Z" fill="white"/>
<mask id="mask0_5624_1072" style="mask-type:alpha" maskUnits="userSpaceOnUse" x="6" y="6" width="24" height="24">
<rect x="6" y="6" width="24" height="24" fill="#D9D9D9"/>
</mask>
<g mask="url(#mask0_5624_1072)">
<path d="M22.2 18.9C22.5667 18.7167 22.75 18.4167 22.75 18C22.75 17.5833 22.5667 17.2833 22.2 17.1L13.45 12.725C13.1167 12.5583 12.7917 12.5708 12.475 12.7625C12.1583 12.9542 12 13.2417 12 13.625V22.375C12 22.7583 12.1583 23.0458 12.475 23.2375C12.7917 23.4292 13.1167 23.4417 13.45 23.275L22.2 18.9ZM14 21V19L17 18L14 17V15L20.5 18L14 21ZM11 27C10.45 27 9.97917 26.8042 9.5875 26.4125C9.19583 26.0208 9 25.55 9 25V11C9 10.45 9.19583 9.97917 9.5875 9.5875C9.97917 9.19583 10.45 9 11 9H25C25.55 9 26.0208 9.19583 26.4125 9.5875C26.8042 9.97917 27 10.45 27 11V25C27 25.55 26.8042 26.0208 26.4125 26.4125C26.0208 26.8042 25.55 27 25 27H11ZM11 25H25V11H11V25Z" fill="#16191C"/>
</g>
</svg>
