<svg width="36" height="36" viewBox="0 0 36 36" fill="none" xmlns="http://www.w3.org/2000/svg">
<path d="M0 18C0 8.05888 8.05888 0 18 0C27.9411 0 36 8.05888 36 18C36 27.9411 27.9411 36 18 36C8.05888 36 0 27.9411 0 18Z" fill="white"/>
<mask id="mask0_5624_1080" style="mask-type:alpha" maskUnits="userSpaceOnUse" x="6" y="6" width="24" height="24">
<rect x="6" y="6" width="24" height="24" fill="#D9D9D9"/>
</mask>
<g mask="url(#mask0_5624_1080)">
<path d="M13 24C11.3333 24 9.91667 23.4167 8.75 22.25C7.58333 21.0833 7 19.6667 7 18C7 16.3333 7.58333 14.9167 8.75 13.75C9.91667 12.5833 11.3333 12 13 12H23C24.6667 12 26.0833 12.5833 27.25 13.75C28.4167 14.9167 29 16.3333 29 18C29 19.6667 28.4167 21.0833 27.25 22.25C26.0833 23.4167 24.6667 24 23 24H13ZM13 22H23C24.1 22 25.0417 21.6083 25.825 20.825C26.6083 20.0417 27 19.1 27 18C27 16.9 26.6083 15.9583 25.825 15.175C25.0417 14.3917 24.1 14 23 14H13C11.9 14 10.9583 14.3917 10.175 15.175C9.39167 15.9583 9 16.9 9 18C9 19.1 9.39167 20.0417 10.175 20.825C10.9583 21.6083 11.9 22 13 22ZM13 21C13.8333 21 14.5417 20.7083 15.125 20.125C15.7083 19.5417 16 18.8333 16 18C16 17.1667 15.7083 16.4583 15.125 15.875C14.5417 15.2917 13.8333 15 13 15C12.1667 15 11.4583 15.2917 10.875 15.875C10.2917 16.4583 10 17.1667 10 18C10 18.8333 10.2917 19.5417 10.875 20.125C11.4583 20.7083 12.1667 21 13 21Z" fill="#16191C"/>
<rect x="18" y="17" width="7" height="2" fill="#16191C"/>
</g>
</svg>
